<?xml version="1.0" encoding="utf-8"?>
<!-- Generator: Adobe Illustrator 24.1.2, SVG Export Plug-In . SVG Version: 6.00 Build 0)  -->
<svg version="1.1" id="Layer_1" xmlns="http://www.w3.org/2000/svg" xmlns:xlink="http://www.w3.org/1999/xlink" x="0px" y="0px"
	 viewBox="0 0 30 30" style="enable-background:new 0 0 30 30;" xml:space="preserve">
<style type="text/css">
	.st0{fill:#010101;}
</style>
<g>
	<g>
		<path class="st0" d="M23.25,16.68l-7.98-0.87l6.27,5.04l2.1,2.1l-1.61,1.65l-2.1-2.1l-5.08-6.34l0.91,8.05v2.98h-2.31v-2.98
			l0.88-8.02l-5.04,6.3l-2.1,2.1l-1.65-1.65l2.1-2.1l6.3-5.04l-8.02,0.87H2.95v-2.28l2.98-0.04l8.05,0.91l-6.3-5.04l-2.1-2.1
			L7.19,6.5l2.1,2.1l5.04,6.27l-0.88-7.98V3.91h2.31v2.97l-0.91,8.02l5.04-6.3l2.1-2.1l1.65,1.64l-2.1,2.1l-6.3,5.04l8.02-0.91h2.98
			v2.31H23.25z"/>
	</g>
</g>
</svg>
